<mxfile host="app.diagrams.net" modified="2021-04-16T00:45:05.341Z" agent="5.0 (Windows NT 10.0; Win64; x64) AppleWebKit/537.36 (KHTML, like Gecko) Chrome/89.0.4389.114 Safari/537.36" etag="FYxpi1xpQxeCbMYnM6ox" version="14.6.0" type="github">
  <diagram id="R2lEEEUBdFMjLlhIrx00" name="Page-1">
    <mxGraphModel dx="1822" dy="1176" grid="1" gridSize="9" guides="1" tooltips="1" connect="1" arrows="1" fold="1" page="0" pageScale="1" pageWidth="850" pageHeight="1100" math="0" shadow="0" extFonts="Permanent Marker^https://fonts.googleapis.com/css?family=Permanent+Marker">
      <root>
        <mxCell id="0" />
        <mxCell id="1" parent="0" />
        <mxCell id="PJ-6n8jXcff-FLxiBfN3-61" value="Países" style="shape=table;startSize=30;container=1;collapsible=1;childLayout=tableLayout;fixedRows=1;rowLines=0;fontStyle=1;align=center;resizeLast=1;" parent="1" vertex="1">
          <mxGeometry x="-260" y="-88" width="180" height="90" as="geometry" />
        </mxCell>
        <mxCell id="PJ-6n8jXcff-FLxiBfN3-62" value="" style="shape=partialRectangle;collapsible=0;dropTarget=0;pointerEvents=0;fillColor=none;top=0;left=0;bottom=1;right=0;points=[[0,0.5],[1,0.5]];portConstraint=eastwest;" parent="PJ-6n8jXcff-FLxiBfN3-61" vertex="1">
          <mxGeometry y="30" width="180" height="30" as="geometry" />
        </mxCell>
        <mxCell id="PJ-6n8jXcff-FLxiBfN3-63" value="PK" style="shape=partialRectangle;connectable=0;fillColor=none;top=0;left=0;bottom=0;right=0;fontStyle=1;overflow=hidden;" parent="PJ-6n8jXcff-FLxiBfN3-62" vertex="1">
          <mxGeometry width="30" height="30" as="geometry" />
        </mxCell>
        <mxCell id="PJ-6n8jXcff-FLxiBfN3-64" value="Cod. País" style="shape=partialRectangle;connectable=0;fillColor=none;top=0;left=0;bottom=0;right=0;align=left;spacingLeft=6;fontStyle=5;overflow=hidden;" parent="PJ-6n8jXcff-FLxiBfN3-62" vertex="1">
          <mxGeometry x="30" width="150" height="30" as="geometry" />
        </mxCell>
        <mxCell id="PJ-6n8jXcff-FLxiBfN3-65" value="" style="shape=partialRectangle;collapsible=0;dropTarget=0;pointerEvents=0;fillColor=none;top=0;left=0;bottom=0;right=0;points=[[0,0.5],[1,0.5]];portConstraint=eastwest;" parent="PJ-6n8jXcff-FLxiBfN3-61" vertex="1">
          <mxGeometry y="60" width="180" height="30" as="geometry" />
        </mxCell>
        <mxCell id="PJ-6n8jXcff-FLxiBfN3-66" value="" style="shape=partialRectangle;connectable=0;fillColor=none;top=0;left=0;bottom=0;right=0;editable=1;overflow=hidden;" parent="PJ-6n8jXcff-FLxiBfN3-65" vertex="1">
          <mxGeometry width="30" height="30" as="geometry" />
        </mxCell>
        <mxCell id="PJ-6n8jXcff-FLxiBfN3-67" value="Nombre del País" style="shape=partialRectangle;connectable=0;fillColor=none;top=0;left=0;bottom=0;right=0;align=left;spacingLeft=6;overflow=hidden;" parent="PJ-6n8jXcff-FLxiBfN3-65" vertex="1">
          <mxGeometry x="30" width="150" height="30" as="geometry" />
        </mxCell>
        <mxCell id="PJ-6n8jXcff-FLxiBfN3-115" value="Puertos" style="shape=table;startSize=30;container=1;collapsible=1;childLayout=tableLayout;fixedRows=1;rowLines=0;fontStyle=1;align=center;resizeLast=1;" parent="1" vertex="1">
          <mxGeometry x="-260" y="90" width="180" height="120" as="geometry" />
        </mxCell>
        <mxCell id="PJ-6n8jXcff-FLxiBfN3-116" value="" style="shape=partialRectangle;collapsible=0;dropTarget=0;pointerEvents=0;fillColor=none;top=0;left=0;bottom=0;right=0;points=[[0,0.5],[1,0.5]];portConstraint=eastwest;" parent="PJ-6n8jXcff-FLxiBfN3-115" vertex="1">
          <mxGeometry y="30" width="180" height="30" as="geometry" />
        </mxCell>
        <mxCell id="PJ-6n8jXcff-FLxiBfN3-117" value="PK" style="shape=partialRectangle;connectable=0;fillColor=none;top=0;left=0;bottom=0;right=0;fontStyle=1;overflow=hidden;" parent="PJ-6n8jXcff-FLxiBfN3-116" vertex="1">
          <mxGeometry width="60" height="30" as="geometry" />
        </mxCell>
        <mxCell id="PJ-6n8jXcff-FLxiBfN3-118" value="Cod. Puerto" style="shape=partialRectangle;connectable=0;fillColor=none;top=0;left=0;bottom=0;right=0;align=left;spacingLeft=6;fontStyle=5;overflow=hidden;" parent="PJ-6n8jXcff-FLxiBfN3-116" vertex="1">
          <mxGeometry x="60" width="120" height="30" as="geometry" />
        </mxCell>
        <mxCell id="PJ-6n8jXcff-FLxiBfN3-119" value="" style="shape=partialRectangle;collapsible=0;dropTarget=0;pointerEvents=0;fillColor=none;top=0;left=0;bottom=1;right=0;points=[[0,0.5],[1,0.5]];portConstraint=eastwest;" parent="PJ-6n8jXcff-FLxiBfN3-115" vertex="1">
          <mxGeometry y="60" width="180" height="30" as="geometry" />
        </mxCell>
        <mxCell id="PJ-6n8jXcff-FLxiBfN3-120" value="PK,FK" style="shape=partialRectangle;connectable=0;fillColor=none;top=0;left=0;bottom=0;right=0;fontStyle=1;overflow=hidden;" parent="PJ-6n8jXcff-FLxiBfN3-119" vertex="1">
          <mxGeometry width="60" height="30" as="geometry" />
        </mxCell>
        <mxCell id="PJ-6n8jXcff-FLxiBfN3-121" value="Cod. País" style="shape=partialRectangle;connectable=0;fillColor=none;top=0;left=0;bottom=0;right=0;align=left;spacingLeft=6;fontStyle=5;overflow=hidden;" parent="PJ-6n8jXcff-FLxiBfN3-119" vertex="1">
          <mxGeometry x="60" width="120" height="30" as="geometry" />
        </mxCell>
        <mxCell id="PJ-6n8jXcff-FLxiBfN3-122" value="" style="shape=partialRectangle;collapsible=0;dropTarget=0;pointerEvents=0;fillColor=none;top=0;left=0;bottom=0;right=0;points=[[0,0.5],[1,0.5]];portConstraint=eastwest;" parent="PJ-6n8jXcff-FLxiBfN3-115" vertex="1">
          <mxGeometry y="90" width="180" height="30" as="geometry" />
        </mxCell>
        <mxCell id="PJ-6n8jXcff-FLxiBfN3-123" value="" style="shape=partialRectangle;connectable=0;fillColor=none;top=0;left=0;bottom=0;right=0;editable=1;overflow=hidden;" parent="PJ-6n8jXcff-FLxiBfN3-122" vertex="1">
          <mxGeometry width="60" height="30" as="geometry" />
        </mxCell>
        <mxCell id="PJ-6n8jXcff-FLxiBfN3-124" value="Nombre del puerto" style="shape=partialRectangle;connectable=0;fillColor=none;top=0;left=0;bottom=0;right=0;align=left;spacingLeft=6;overflow=hidden;" parent="PJ-6n8jXcff-FLxiBfN3-122" vertex="1">
          <mxGeometry x="60" width="120" height="30" as="geometry" />
        </mxCell>
        <mxCell id="PJ-6n8jXcff-FLxiBfN3-129" value="Embarcaciones" style="shape=table;startSize=30;container=1;collapsible=1;childLayout=tableLayout;fixedRows=1;rowLines=0;fontStyle=1;align=center;resizeLast=1;" parent="1" vertex="1">
          <mxGeometry x="-300" y="240" width="260" height="130" as="geometry" />
        </mxCell>
        <mxCell id="PJ-6n8jXcff-FLxiBfN3-130" value="" style="shape=partialRectangle;collapsible=0;dropTarget=0;pointerEvents=0;fillColor=none;top=0;left=0;bottom=1;right=0;points=[[0,0.5],[1,0.5]];portConstraint=eastwest;" parent="PJ-6n8jXcff-FLxiBfN3-129" vertex="1">
          <mxGeometry y="30" width="260" height="30" as="geometry" />
        </mxCell>
        <mxCell id="PJ-6n8jXcff-FLxiBfN3-131" value="PK" style="shape=partialRectangle;connectable=0;fillColor=none;top=0;left=0;bottom=0;right=0;fontStyle=1;overflow=hidden;" parent="PJ-6n8jXcff-FLxiBfN3-130" vertex="1">
          <mxGeometry width="30" height="30" as="geometry" />
        </mxCell>
        <mxCell id="PJ-6n8jXcff-FLxiBfN3-132" value="Cod. Tipo de Embarcación" style="shape=partialRectangle;connectable=0;fillColor=none;top=0;left=0;bottom=0;right=0;align=left;spacingLeft=6;fontStyle=5;overflow=hidden;" parent="PJ-6n8jXcff-FLxiBfN3-130" vertex="1">
          <mxGeometry x="30" width="230" height="30" as="geometry" />
        </mxCell>
        <mxCell id="PJ-6n8jXcff-FLxiBfN3-133" value="" style="shape=partialRectangle;collapsible=0;dropTarget=0;pointerEvents=0;fillColor=none;top=0;left=0;bottom=0;right=0;points=[[0,0.5],[1,0.5]];portConstraint=eastwest;" parent="PJ-6n8jXcff-FLxiBfN3-129" vertex="1">
          <mxGeometry y="60" width="260" height="30" as="geometry" />
        </mxCell>
        <mxCell id="PJ-6n8jXcff-FLxiBfN3-134" value="" style="shape=partialRectangle;connectable=0;fillColor=none;top=0;left=0;bottom=0;right=0;editable=1;overflow=hidden;" parent="PJ-6n8jXcff-FLxiBfN3-133" vertex="1">
          <mxGeometry width="30" height="30" as="geometry" />
        </mxCell>
        <mxCell id="PJ-6n8jXcff-FLxiBfN3-135" value="Descripción tipo de embarcación" style="shape=partialRectangle;connectable=0;fillColor=none;top=0;left=0;bottom=0;right=0;align=left;spacingLeft=6;overflow=hidden;" parent="PJ-6n8jXcff-FLxiBfN3-133" vertex="1">
          <mxGeometry x="30" width="230" height="30" as="geometry" />
        </mxCell>
        <mxCell id="PJ-6n8jXcff-FLxiBfN3-136" value="" style="shape=partialRectangle;collapsible=0;dropTarget=0;pointerEvents=0;fillColor=none;top=0;left=0;bottom=0;right=0;points=[[0,0.5],[1,0.5]];portConstraint=eastwest;" parent="PJ-6n8jXcff-FLxiBfN3-129" vertex="1">
          <mxGeometry y="90" width="260" height="30" as="geometry" />
        </mxCell>
        <mxCell id="PJ-6n8jXcff-FLxiBfN3-137" value="" style="shape=partialRectangle;connectable=0;fillColor=none;top=0;left=0;bottom=0;right=0;editable=1;overflow=hidden;" parent="PJ-6n8jXcff-FLxiBfN3-136" vertex="1">
          <mxGeometry width="30" height="30" as="geometry" />
        </mxCell>
        <mxCell id="PJ-6n8jXcff-FLxiBfN3-138" value="Restricciones por tipo de embarcación" style="shape=partialRectangle;connectable=0;fillColor=none;top=0;left=0;bottom=0;right=0;align=left;spacingLeft=6;overflow=hidden;" parent="PJ-6n8jXcff-FLxiBfN3-136" vertex="1">
          <mxGeometry x="30" width="230" height="30" as="geometry" />
        </mxCell>
        <mxCell id="PJ-6n8jXcff-FLxiBfN3-143" value="Barcos" style="shape=table;startSize=30;container=1;collapsible=1;childLayout=tableLayout;fixedRows=1;rowLines=0;fontStyle=1;align=center;resizeLast=1;" parent="1" vertex="1">
          <mxGeometry x="63" y="90" width="225" height="280" as="geometry" />
        </mxCell>
        <mxCell id="PJ-6n8jXcff-FLxiBfN3-144" value="" style="shape=partialRectangle;collapsible=0;dropTarget=0;pointerEvents=0;fillColor=none;top=0;left=0;bottom=0;right=0;points=[[0,0.5],[1,0.5]];portConstraint=eastwest;" parent="PJ-6n8jXcff-FLxiBfN3-143" vertex="1">
          <mxGeometry y="30" width="225" height="30" as="geometry" />
        </mxCell>
        <mxCell id="PJ-6n8jXcff-FLxiBfN3-145" value="PK" style="shape=partialRectangle;connectable=0;fillColor=none;top=0;left=0;bottom=0;right=0;fontStyle=1;overflow=hidden;" parent="PJ-6n8jXcff-FLxiBfN3-144" vertex="1">
          <mxGeometry width="60" height="30" as="geometry" />
        </mxCell>
        <mxCell id="PJ-6n8jXcff-FLxiBfN3-146" value="Cod. Barco" style="shape=partialRectangle;connectable=0;fillColor=none;top=0;left=0;bottom=0;right=0;align=left;spacingLeft=6;fontStyle=5;overflow=hidden;" parent="PJ-6n8jXcff-FLxiBfN3-144" vertex="1">
          <mxGeometry x="60" width="165" height="30" as="geometry" />
        </mxCell>
        <mxCell id="PJ-6n8jXcff-FLxiBfN3-147" value="" style="shape=partialRectangle;collapsible=0;dropTarget=0;pointerEvents=0;fillColor=none;top=0;left=0;bottom=1;right=0;points=[[0,0.5],[1,0.5]];portConstraint=eastwest;" parent="PJ-6n8jXcff-FLxiBfN3-143" vertex="1">
          <mxGeometry y="60" width="225" height="30" as="geometry" />
        </mxCell>
        <mxCell id="PJ-6n8jXcff-FLxiBfN3-148" value="PK,FK" style="shape=partialRectangle;connectable=0;fillColor=none;top=0;left=0;bottom=0;right=0;fontStyle=1;overflow=hidden;" parent="PJ-6n8jXcff-FLxiBfN3-147" vertex="1">
          <mxGeometry width="60" height="30" as="geometry" />
        </mxCell>
        <mxCell id="PJ-6n8jXcff-FLxiBfN3-149" value="Cod. Empresa naviera" style="shape=partialRectangle;connectable=0;fillColor=none;top=0;left=0;bottom=0;right=0;align=left;spacingLeft=6;fontStyle=5;overflow=hidden;" parent="PJ-6n8jXcff-FLxiBfN3-147" vertex="1">
          <mxGeometry x="60" width="165" height="30" as="geometry" />
        </mxCell>
        <mxCell id="PJ-6n8jXcff-FLxiBfN3-150" value="" style="shape=partialRectangle;collapsible=0;dropTarget=0;pointerEvents=0;fillColor=none;top=0;left=0;bottom=0;right=0;points=[[0,0.5],[1,0.5]];portConstraint=eastwest;" parent="PJ-6n8jXcff-FLxiBfN3-143" vertex="1">
          <mxGeometry y="90" width="225" height="30" as="geometry" />
        </mxCell>
        <mxCell id="PJ-6n8jXcff-FLxiBfN3-151" value="" style="shape=partialRectangle;connectable=0;fillColor=none;top=0;left=0;bottom=0;right=0;editable=1;overflow=hidden;" parent="PJ-6n8jXcff-FLxiBfN3-150" vertex="1">
          <mxGeometry width="60" height="30" as="geometry" />
        </mxCell>
        <mxCell id="PJ-6n8jXcff-FLxiBfN3-152" value="Nombre del barco" style="shape=partialRectangle;connectable=0;fillColor=none;top=0;left=0;bottom=0;right=0;align=left;spacingLeft=6;overflow=hidden;" parent="PJ-6n8jXcff-FLxiBfN3-150" vertex="1">
          <mxGeometry x="60" width="165" height="30" as="geometry" />
        </mxCell>
        <mxCell id="PJ-6n8jXcff-FLxiBfN3-153" value="" style="shape=partialRectangle;collapsible=0;dropTarget=0;pointerEvents=0;fillColor=none;top=0;left=0;bottom=0;right=0;points=[[0,0.5],[1,0.5]];portConstraint=eastwest;" parent="PJ-6n8jXcff-FLxiBfN3-143" vertex="1">
          <mxGeometry y="120" width="225" height="30" as="geometry" />
        </mxCell>
        <mxCell id="PJ-6n8jXcff-FLxiBfN3-154" value="FK" style="shape=partialRectangle;connectable=0;fillColor=none;top=0;left=0;bottom=0;right=0;editable=1;overflow=hidden;" parent="PJ-6n8jXcff-FLxiBfN3-153" vertex="1">
          <mxGeometry width="60" height="30" as="geometry" />
        </mxCell>
        <mxCell id="PJ-6n8jXcff-FLxiBfN3-155" value="Cod. País" style="shape=partialRectangle;connectable=0;fillColor=none;top=0;left=0;bottom=0;right=0;align=left;spacingLeft=6;overflow=hidden;" parent="PJ-6n8jXcff-FLxiBfN3-153" vertex="1">
          <mxGeometry x="60" width="165" height="30" as="geometry" />
        </mxCell>
        <mxCell id="PJ-6n8jXcff-FLxiBfN3-171" style="shape=partialRectangle;collapsible=0;dropTarget=0;pointerEvents=0;fillColor=none;top=0;left=0;bottom=0;right=0;points=[[0,0.5],[1,0.5]];portConstraint=eastwest;" parent="PJ-6n8jXcff-FLxiBfN3-143" vertex="1">
          <mxGeometry y="150" width="225" height="30" as="geometry" />
        </mxCell>
        <mxCell id="PJ-6n8jXcff-FLxiBfN3-172" value="FK" style="shape=partialRectangle;connectable=0;fillColor=none;top=0;left=0;bottom=0;right=0;editable=1;overflow=hidden;" parent="PJ-6n8jXcff-FLxiBfN3-171" vertex="1">
          <mxGeometry width="60" height="30" as="geometry" />
        </mxCell>
        <mxCell id="PJ-6n8jXcff-FLxiBfN3-173" value="Cod. Puerto" style="shape=partialRectangle;connectable=0;fillColor=none;top=0;left=0;bottom=0;right=0;align=left;spacingLeft=6;overflow=hidden;" parent="PJ-6n8jXcff-FLxiBfN3-171" vertex="1">
          <mxGeometry x="60" width="165" height="30" as="geometry" />
        </mxCell>
        <mxCell id="PJ-6n8jXcff-FLxiBfN3-168" style="shape=partialRectangle;collapsible=0;dropTarget=0;pointerEvents=0;fillColor=none;top=0;left=0;bottom=0;right=0;points=[[0,0.5],[1,0.5]];portConstraint=eastwest;" parent="PJ-6n8jXcff-FLxiBfN3-143" vertex="1">
          <mxGeometry y="180" width="225" height="30" as="geometry" />
        </mxCell>
        <mxCell id="PJ-6n8jXcff-FLxiBfN3-169" style="shape=partialRectangle;connectable=0;fillColor=none;top=0;left=0;bottom=0;right=0;editable=1;overflow=hidden;" parent="PJ-6n8jXcff-FLxiBfN3-168" vertex="1">
          <mxGeometry width="60" height="30" as="geometry" />
        </mxCell>
        <mxCell id="PJ-6n8jXcff-FLxiBfN3-170" value="Nº de Embarcadero" style="shape=partialRectangle;connectable=0;fillColor=none;top=0;left=0;bottom=0;right=0;align=left;spacingLeft=6;overflow=hidden;" parent="PJ-6n8jXcff-FLxiBfN3-168" vertex="1">
          <mxGeometry x="60" width="165" height="30" as="geometry" />
        </mxCell>
        <mxCell id="PJ-6n8jXcff-FLxiBfN3-165" style="shape=partialRectangle;collapsible=0;dropTarget=0;pointerEvents=0;fillColor=none;top=0;left=0;bottom=0;right=0;points=[[0,0.5],[1,0.5]];portConstraint=eastwest;" parent="PJ-6n8jXcff-FLxiBfN3-143" vertex="1">
          <mxGeometry y="210" width="225" height="30" as="geometry" />
        </mxCell>
        <mxCell id="PJ-6n8jXcff-FLxiBfN3-166" value="FK" style="shape=partialRectangle;connectable=0;fillColor=none;top=0;left=0;bottom=0;right=0;editable=1;overflow=hidden;" parent="PJ-6n8jXcff-FLxiBfN3-165" vertex="1">
          <mxGeometry width="60" height="30" as="geometry" />
        </mxCell>
        <mxCell id="PJ-6n8jXcff-FLxiBfN3-167" value="Matrícula del Capitán" style="shape=partialRectangle;connectable=0;fillColor=none;top=0;left=0;bottom=0;right=0;align=left;spacingLeft=6;overflow=hidden;" parent="PJ-6n8jXcff-FLxiBfN3-165" vertex="1">
          <mxGeometry x="60" width="165" height="30" as="geometry" />
        </mxCell>
        <mxCell id="PJ-6n8jXcff-FLxiBfN3-162" style="shape=partialRectangle;collapsible=0;dropTarget=0;pointerEvents=0;fillColor=none;top=0;left=0;bottom=0;right=0;points=[[0,0.5],[1,0.5]];portConstraint=eastwest;" parent="PJ-6n8jXcff-FLxiBfN3-143" vertex="1">
          <mxGeometry y="240" width="225" height="30" as="geometry" />
        </mxCell>
        <mxCell id="PJ-6n8jXcff-FLxiBfN3-163" value="FK" style="shape=partialRectangle;connectable=0;fillColor=none;top=0;left=0;bottom=0;right=0;editable=1;overflow=hidden;" parent="PJ-6n8jXcff-FLxiBfN3-162" vertex="1">
          <mxGeometry width="60" height="30" as="geometry" />
        </mxCell>
        <mxCell id="PJ-6n8jXcff-FLxiBfN3-164" value="Cod. Tipo de embarcación" style="shape=partialRectangle;connectable=0;fillColor=none;top=0;left=0;bottom=0;right=0;align=left;spacingLeft=6;overflow=hidden;" parent="PJ-6n8jXcff-FLxiBfN3-162" vertex="1">
          <mxGeometry x="60" width="165" height="30" as="geometry" />
        </mxCell>
        <mxCell id="RGW5aQLPj-XnxgQfSlTx-39" style="edgeStyle=orthogonalEdgeStyle;rounded=0;orthogonalLoop=1;jettySize=auto;html=1;endArrow=ERoneToMany;endFill=0;" edge="1" parent="1" source="PJ-6n8jXcff-FLxiBfN3-175" target="RGW5aQLPj-XnxgQfSlTx-26">
          <mxGeometry relative="1" as="geometry" />
        </mxCell>
        <mxCell id="PJ-6n8jXcff-FLxiBfN3-175" value="Empresas" style="shape=table;startSize=30;container=1;collapsible=1;childLayout=tableLayout;fixedRows=1;rowLines=0;fontStyle=1;align=center;resizeLast=1;" parent="1" vertex="1">
          <mxGeometry x="63" y="-108" width="223" height="130" as="geometry" />
        </mxCell>
        <mxCell id="PJ-6n8jXcff-FLxiBfN3-176" value="" style="shape=partialRectangle;collapsible=0;dropTarget=0;pointerEvents=0;fillColor=none;top=0;left=0;bottom=1;right=0;points=[[0,0.5],[1,0.5]];portConstraint=eastwest;" parent="PJ-6n8jXcff-FLxiBfN3-175" vertex="1">
          <mxGeometry y="30" width="223" height="30" as="geometry" />
        </mxCell>
        <mxCell id="PJ-6n8jXcff-FLxiBfN3-177" value="PK" style="shape=partialRectangle;connectable=0;fillColor=none;top=0;left=0;bottom=0;right=0;fontStyle=1;overflow=hidden;" parent="PJ-6n8jXcff-FLxiBfN3-176" vertex="1">
          <mxGeometry width="30" height="30" as="geometry" />
        </mxCell>
        <mxCell id="PJ-6n8jXcff-FLxiBfN3-178" value="Cod. Empresa naviera" style="shape=partialRectangle;connectable=0;fillColor=none;top=0;left=0;bottom=0;right=0;align=left;spacingLeft=6;fontStyle=5;overflow=hidden;" parent="PJ-6n8jXcff-FLxiBfN3-176" vertex="1">
          <mxGeometry x="30" width="193" height="30" as="geometry" />
        </mxCell>
        <mxCell id="PJ-6n8jXcff-FLxiBfN3-179" value="" style="shape=partialRectangle;collapsible=0;dropTarget=0;pointerEvents=0;fillColor=none;top=0;left=0;bottom=0;right=0;points=[[0,0.5],[1,0.5]];portConstraint=eastwest;" parent="PJ-6n8jXcff-FLxiBfN3-175" vertex="1">
          <mxGeometry y="60" width="223" height="30" as="geometry" />
        </mxCell>
        <mxCell id="PJ-6n8jXcff-FLxiBfN3-180" value="" style="shape=partialRectangle;connectable=0;fillColor=none;top=0;left=0;bottom=0;right=0;editable=1;overflow=hidden;" parent="PJ-6n8jXcff-FLxiBfN3-179" vertex="1">
          <mxGeometry width="30" height="30" as="geometry" />
        </mxCell>
        <mxCell id="PJ-6n8jXcff-FLxiBfN3-181" value="Nombre de la empresa naviera" style="shape=partialRectangle;connectable=0;fillColor=none;top=0;left=0;bottom=0;right=0;align=left;spacingLeft=6;overflow=hidden;" parent="PJ-6n8jXcff-FLxiBfN3-179" vertex="1">
          <mxGeometry x="30" width="193" height="30" as="geometry" />
        </mxCell>
        <mxCell id="PJ-6n8jXcff-FLxiBfN3-182" value="" style="shape=partialRectangle;collapsible=0;dropTarget=0;pointerEvents=0;fillColor=none;top=0;left=0;bottom=0;right=0;points=[[0,0.5],[1,0.5]];portConstraint=eastwest;" parent="PJ-6n8jXcff-FLxiBfN3-175" vertex="1">
          <mxGeometry y="90" width="223" height="30" as="geometry" />
        </mxCell>
        <mxCell id="PJ-6n8jXcff-FLxiBfN3-183" value="" style="shape=partialRectangle;connectable=0;fillColor=none;top=0;left=0;bottom=0;right=0;editable=1;overflow=hidden;" parent="PJ-6n8jXcff-FLxiBfN3-182" vertex="1">
          <mxGeometry width="30" height="30" as="geometry" />
        </mxCell>
        <mxCell id="PJ-6n8jXcff-FLxiBfN3-184" value="Domicilio de la empresa naviera" style="shape=partialRectangle;connectable=0;fillColor=none;top=0;left=0;bottom=0;right=0;align=left;spacingLeft=6;overflow=hidden;" parent="PJ-6n8jXcff-FLxiBfN3-182" vertex="1">
          <mxGeometry x="30" width="193" height="30" as="geometry" />
        </mxCell>
        <mxCell id="PJ-6n8jXcff-FLxiBfN3-220" value="TripulaciónXBarco" style="shape=table;startSize=30;container=1;collapsible=1;childLayout=tableLayout;fixedRows=1;rowLines=0;fontStyle=1;align=center;resizeLast=1;" parent="1" vertex="1">
          <mxGeometry x="424" y="90" width="225" height="130" as="geometry" />
        </mxCell>
        <mxCell id="PJ-6n8jXcff-FLxiBfN3-221" value="" style="shape=partialRectangle;collapsible=0;dropTarget=0;pointerEvents=0;fillColor=none;top=0;left=0;bottom=0;right=0;points=[[0,0.5],[1,0.5]];portConstraint=eastwest;" parent="PJ-6n8jXcff-FLxiBfN3-220" vertex="1">
          <mxGeometry y="30" width="225" height="30" as="geometry" />
        </mxCell>
        <mxCell id="PJ-6n8jXcff-FLxiBfN3-222" value="PK,FK" style="shape=partialRectangle;connectable=0;fillColor=none;top=0;left=0;bottom=0;right=0;fontStyle=1;overflow=hidden;" parent="PJ-6n8jXcff-FLxiBfN3-221" vertex="1">
          <mxGeometry width="60" height="30" as="geometry" />
        </mxCell>
        <mxCell id="PJ-6n8jXcff-FLxiBfN3-223" value="Nº de legajo de tripulante" style="shape=partialRectangle;connectable=0;fillColor=none;top=0;left=0;bottom=0;right=0;align=left;spacingLeft=6;fontStyle=5;overflow=hidden;" parent="PJ-6n8jXcff-FLxiBfN3-221" vertex="1">
          <mxGeometry x="60" width="165" height="30" as="geometry" />
        </mxCell>
        <mxCell id="PJ-6n8jXcff-FLxiBfN3-236" style="shape=partialRectangle;collapsible=0;dropTarget=0;pointerEvents=0;fillColor=none;top=0;left=0;bottom=0;right=0;points=[[0,0.5],[1,0.5]];portConstraint=eastwest;" parent="PJ-6n8jXcff-FLxiBfN3-220" vertex="1">
          <mxGeometry y="60" width="225" height="30" as="geometry" />
        </mxCell>
        <mxCell id="PJ-6n8jXcff-FLxiBfN3-237" value="PK,FK" style="shape=partialRectangle;connectable=0;fillColor=none;top=0;left=0;bottom=0;right=0;fontStyle=1;overflow=hidden;" parent="PJ-6n8jXcff-FLxiBfN3-236" vertex="1">
          <mxGeometry width="60" height="30" as="geometry" />
        </mxCell>
        <mxCell id="PJ-6n8jXcff-FLxiBfN3-238" value="Cod. Barco" style="shape=partialRectangle;connectable=0;fillColor=none;top=0;left=0;bottom=0;right=0;align=left;spacingLeft=6;fontStyle=5;overflow=hidden;" parent="PJ-6n8jXcff-FLxiBfN3-236" vertex="1">
          <mxGeometry x="60" width="165" height="30" as="geometry" />
        </mxCell>
        <mxCell id="PJ-6n8jXcff-FLxiBfN3-224" value="" style="shape=partialRectangle;collapsible=0;dropTarget=0;pointerEvents=0;fillColor=none;top=0;left=0;bottom=1;right=0;points=[[0,0.5],[1,0.5]];portConstraint=eastwest;" parent="PJ-6n8jXcff-FLxiBfN3-220" vertex="1">
          <mxGeometry y="90" width="225" height="30" as="geometry" />
        </mxCell>
        <mxCell id="PJ-6n8jXcff-FLxiBfN3-225" value="PK,FK" style="shape=partialRectangle;connectable=0;fillColor=none;top=0;left=0;bottom=0;right=0;fontStyle=1;overflow=hidden;" parent="PJ-6n8jXcff-FLxiBfN3-224" vertex="1">
          <mxGeometry width="60" height="30" as="geometry" />
        </mxCell>
        <mxCell id="PJ-6n8jXcff-FLxiBfN3-226" value="Cod. Empresa naviera" style="shape=partialRectangle;connectable=0;fillColor=none;top=0;left=0;bottom=0;right=0;align=left;spacingLeft=6;fontStyle=5;overflow=hidden;" parent="PJ-6n8jXcff-FLxiBfN3-224" vertex="1">
          <mxGeometry x="60" width="165" height="30" as="geometry" />
        </mxCell>
        <mxCell id="PJ-6n8jXcff-FLxiBfN3-239" value="CursosXTripulante" style="shape=table;startSize=30;container=1;collapsible=1;childLayout=tableLayout;fixedRows=1;rowLines=0;fontStyle=1;align=center;resizeLast=1;" parent="1" vertex="1">
          <mxGeometry x="731.25" y="105" width="276.75" height="100" as="geometry" />
        </mxCell>
        <mxCell id="PJ-6n8jXcff-FLxiBfN3-240" value="" style="shape=partialRectangle;collapsible=0;dropTarget=0;pointerEvents=0;fillColor=none;top=0;left=0;bottom=0;right=0;points=[[0,0.5],[1,0.5]];portConstraint=eastwest;" parent="PJ-6n8jXcff-FLxiBfN3-239" vertex="1">
          <mxGeometry y="30" width="276.75" height="30" as="geometry" />
        </mxCell>
        <mxCell id="PJ-6n8jXcff-FLxiBfN3-241" value="PK" style="shape=partialRectangle;connectable=0;fillColor=none;top=0;left=0;bottom=0;right=0;fontStyle=1;overflow=hidden;" parent="PJ-6n8jXcff-FLxiBfN3-240" vertex="1">
          <mxGeometry width="60" height="30" as="geometry" />
        </mxCell>
        <mxCell id="PJ-6n8jXcff-FLxiBfN3-242" value="Curso de especialización" style="shape=partialRectangle;connectable=0;fillColor=none;top=0;left=0;bottom=0;right=0;align=left;spacingLeft=6;fontStyle=5;overflow=hidden;" parent="PJ-6n8jXcff-FLxiBfN3-240" vertex="1">
          <mxGeometry x="60" width="216.75" height="30" as="geometry" />
        </mxCell>
        <mxCell id="PJ-6n8jXcff-FLxiBfN3-252" style="shape=partialRectangle;collapsible=0;dropTarget=0;pointerEvents=0;fillColor=none;top=0;left=0;bottom=0;right=0;points=[[0,0.5],[1,0.5]];portConstraint=eastwest;" parent="PJ-6n8jXcff-FLxiBfN3-239" vertex="1">
          <mxGeometry y="60" width="276.75" height="30" as="geometry" />
        </mxCell>
        <mxCell id="PJ-6n8jXcff-FLxiBfN3-253" value="PK,FK" style="shape=partialRectangle;connectable=0;fillColor=none;top=0;left=0;bottom=0;right=0;fontStyle=1;overflow=hidden;" parent="PJ-6n8jXcff-FLxiBfN3-252" vertex="1">
          <mxGeometry width="60" height="30" as="geometry" />
        </mxCell>
        <mxCell id="PJ-6n8jXcff-FLxiBfN3-254" value="Nº Doc. de Identidad del tripulante" style="shape=partialRectangle;connectable=0;fillColor=none;top=0;left=0;bottom=0;right=0;align=left;spacingLeft=6;fontStyle=5;overflow=hidden;" parent="PJ-6n8jXcff-FLxiBfN3-252" vertex="1">
          <mxGeometry x="60" width="216.75" height="30" as="geometry" />
        </mxCell>
        <mxCell id="RGW5aQLPj-XnxgQfSlTx-42" style="edgeStyle=orthogonalEdgeStyle;rounded=0;orthogonalLoop=1;jettySize=auto;html=1;endArrow=ERoneToMany;endFill=0;" edge="1" parent="1" source="PJ-6n8jXcff-FLxiBfN3-255" target="PJ-6n8jXcff-FLxiBfN3-239">
          <mxGeometry relative="1" as="geometry" />
        </mxCell>
        <mxCell id="RGW5aQLPj-XnxgQfSlTx-43" style="edgeStyle=orthogonalEdgeStyle;rounded=0;orthogonalLoop=1;jettySize=auto;html=1;endArrow=ERoneToMany;endFill=0;" edge="1" parent="1" source="PJ-6n8jXcff-FLxiBfN3-255" target="RGW5aQLPj-XnxgQfSlTx-26">
          <mxGeometry relative="1" as="geometry">
            <Array as="points">
              <mxPoint x="702" y="-63" />
              <mxPoint x="702" y="-63" />
            </Array>
          </mxGeometry>
        </mxCell>
        <mxCell id="PJ-6n8jXcff-FLxiBfN3-255" value="Tripulación" style="shape=table;startSize=30;container=1;collapsible=1;childLayout=tableLayout;fixedRows=1;rowLines=0;fontStyle=1;align=center;resizeLast=1;" parent="1" vertex="1">
          <mxGeometry x="731.25" y="-108" width="276.75" height="160" as="geometry" />
        </mxCell>
        <mxCell id="PJ-6n8jXcff-FLxiBfN3-259" value="" style="shape=partialRectangle;collapsible=0;dropTarget=0;pointerEvents=0;fillColor=none;top=0;left=0;bottom=1;right=0;points=[[0,0.5],[1,0.5]];portConstraint=eastwest;" parent="PJ-6n8jXcff-FLxiBfN3-255" vertex="1">
          <mxGeometry y="30" width="276.75" height="30" as="geometry" />
        </mxCell>
        <mxCell id="PJ-6n8jXcff-FLxiBfN3-260" value="PK" style="shape=partialRectangle;connectable=0;fillColor=none;top=0;left=0;bottom=0;right=0;fontStyle=1;overflow=hidden;" parent="PJ-6n8jXcff-FLxiBfN3-259" vertex="1">
          <mxGeometry width="60" height="30" as="geometry" />
        </mxCell>
        <mxCell id="PJ-6n8jXcff-FLxiBfN3-261" value="Nº Doc. de Identidad del tripulante" style="shape=partialRectangle;connectable=0;fillColor=none;top=0;left=0;bottom=0;right=0;align=left;spacingLeft=6;fontStyle=5;overflow=hidden;" parent="PJ-6n8jXcff-FLxiBfN3-259" vertex="1">
          <mxGeometry x="60" width="216.75" height="30" as="geometry" />
        </mxCell>
        <mxCell id="PJ-6n8jXcff-FLxiBfN3-262" value="" style="shape=partialRectangle;collapsible=0;dropTarget=0;pointerEvents=0;fillColor=none;top=0;left=0;bottom=0;right=0;points=[[0,0.5],[1,0.5]];portConstraint=eastwest;" parent="PJ-6n8jXcff-FLxiBfN3-255" vertex="1">
          <mxGeometry y="60" width="276.75" height="30" as="geometry" />
        </mxCell>
        <mxCell id="PJ-6n8jXcff-FLxiBfN3-263" value="" style="shape=partialRectangle;connectable=0;fillColor=none;top=0;left=0;bottom=0;right=0;editable=1;overflow=hidden;" parent="PJ-6n8jXcff-FLxiBfN3-262" vertex="1">
          <mxGeometry width="60" height="30" as="geometry" />
        </mxCell>
        <mxCell id="PJ-6n8jXcff-FLxiBfN3-264" value="Nombre del tripulante" style="shape=partialRectangle;connectable=0;fillColor=none;top=0;left=0;bottom=0;right=0;align=left;spacingLeft=6;overflow=hidden;" parent="PJ-6n8jXcff-FLxiBfN3-262" vertex="1">
          <mxGeometry x="60" width="216.75" height="30" as="geometry" />
        </mxCell>
        <mxCell id="PJ-6n8jXcff-FLxiBfN3-268" style="shape=partialRectangle;collapsible=0;dropTarget=0;pointerEvents=0;fillColor=none;top=0;left=0;bottom=0;right=0;points=[[0,0.5],[1,0.5]];portConstraint=eastwest;" parent="PJ-6n8jXcff-FLxiBfN3-255" vertex="1">
          <mxGeometry y="90" width="276.75" height="30" as="geometry" />
        </mxCell>
        <mxCell id="PJ-6n8jXcff-FLxiBfN3-269" style="shape=partialRectangle;connectable=0;fillColor=none;top=0;left=0;bottom=0;right=0;editable=1;overflow=hidden;" parent="PJ-6n8jXcff-FLxiBfN3-268" vertex="1">
          <mxGeometry width="60" height="30" as="geometry" />
        </mxCell>
        <mxCell id="PJ-6n8jXcff-FLxiBfN3-270" value="Domicilio del tripulante" style="shape=partialRectangle;connectable=0;fillColor=none;top=0;left=0;bottom=0;right=0;align=left;spacingLeft=6;overflow=hidden;" parent="PJ-6n8jXcff-FLxiBfN3-268" vertex="1">
          <mxGeometry x="60" width="216.75" height="30" as="geometry" />
        </mxCell>
        <mxCell id="PJ-6n8jXcff-FLxiBfN3-271" style="shape=partialRectangle;collapsible=0;dropTarget=0;pointerEvents=0;fillColor=none;top=0;left=0;bottom=0;right=0;points=[[0,0.5],[1,0.5]];portConstraint=eastwest;" parent="PJ-6n8jXcff-FLxiBfN3-255" vertex="1">
          <mxGeometry y="120" width="276.75" height="30" as="geometry" />
        </mxCell>
        <mxCell id="PJ-6n8jXcff-FLxiBfN3-272" style="shape=partialRectangle;connectable=0;fillColor=none;top=0;left=0;bottom=0;right=0;editable=1;overflow=hidden;" parent="PJ-6n8jXcff-FLxiBfN3-271" vertex="1">
          <mxGeometry width="60" height="30" as="geometry" />
        </mxCell>
        <mxCell id="PJ-6n8jXcff-FLxiBfN3-273" value="Fecha de inicio de actividad" style="shape=partialRectangle;connectable=0;fillColor=none;top=0;left=0;bottom=0;right=0;align=left;spacingLeft=6;overflow=hidden;" parent="PJ-6n8jXcff-FLxiBfN3-271" vertex="1">
          <mxGeometry x="60" width="216.75" height="30" as="geometry" />
        </mxCell>
        <mxCell id="PJ-6n8jXcff-FLxiBfN3-281" value="" style="edgeStyle=orthogonalEdgeStyle;fontSize=12;html=1;endArrow=ERoneToMany;" parent="1" source="PJ-6n8jXcff-FLxiBfN3-143" target="PJ-6n8jXcff-FLxiBfN3-220" edge="1">
          <mxGeometry width="100" height="100" relative="1" as="geometry">
            <mxPoint x="234" y="220" as="sourcePoint" />
            <mxPoint x="334" y="120" as="targetPoint" />
            <Array as="points">
              <mxPoint x="324" y="155" />
              <mxPoint x="324" y="155" />
            </Array>
          </mxGeometry>
        </mxCell>
        <mxCell id="PJ-6n8jXcff-FLxiBfN3-282" value="" style="edgeStyle=orthogonalEdgeStyle;fontSize=12;html=1;endArrow=ERoneToMany;" parent="1" source="PJ-6n8jXcff-FLxiBfN3-143" target="PJ-6n8jXcff-FLxiBfN3-129" edge="1">
          <mxGeometry width="100" height="100" relative="1" as="geometry">
            <mxPoint x="225" y="-68" as="sourcePoint" />
            <mxPoint x="325" y="-168" as="targetPoint" />
            <Array as="points">
              <mxPoint x="9" y="279" />
              <mxPoint x="9" y="279" />
            </Array>
          </mxGeometry>
        </mxCell>
        <mxCell id="PJ-6n8jXcff-FLxiBfN3-283" value="" style="edgeStyle=orthogonalEdgeStyle;fontSize=12;html=1;endArrow=ERoneToMany;" parent="1" source="PJ-6n8jXcff-FLxiBfN3-143" target="PJ-6n8jXcff-FLxiBfN3-115" edge="1">
          <mxGeometry width="100" height="100" relative="1" as="geometry">
            <mxPoint x="234" y="220" as="sourcePoint" />
            <mxPoint x="334" y="120" as="targetPoint" />
            <Array as="points">
              <mxPoint x="-9" y="138" />
              <mxPoint x="-9" y="138" />
            </Array>
          </mxGeometry>
        </mxCell>
        <mxCell id="PJ-6n8jXcff-FLxiBfN3-284" value="" style="edgeStyle=orthogonalEdgeStyle;fontSize=12;html=1;endArrow=ERoneToMany;" parent="1" source="PJ-6n8jXcff-FLxiBfN3-61" target="PJ-6n8jXcff-FLxiBfN3-115" edge="1">
          <mxGeometry width="100" height="100" relative="1" as="geometry">
            <mxPoint x="234" y="199" as="sourcePoint" />
            <mxPoint x="334" y="99" as="targetPoint" />
          </mxGeometry>
        </mxCell>
        <mxCell id="PJ-6n8jXcff-FLxiBfN3-290" value="" style="edgeStyle=orthogonalEdgeStyle;fontSize=12;html=1;endArrow=ERoneToMany;" parent="1" source="PJ-6n8jXcff-FLxiBfN3-175" target="PJ-6n8jXcff-FLxiBfN3-143" edge="1">
          <mxGeometry width="100" height="100" relative="1" as="geometry">
            <mxPoint x="234" y="199" as="sourcePoint" />
            <mxPoint x="334" y="99" as="targetPoint" />
            <Array as="points">
              <mxPoint x="176" y="36" />
              <mxPoint x="176" y="36" />
            </Array>
          </mxGeometry>
        </mxCell>
        <mxCell id="RGW5aQLPj-XnxgQfSlTx-41" style="edgeStyle=orthogonalEdgeStyle;rounded=0;orthogonalLoop=1;jettySize=auto;html=1;endArrow=ERoneToMany;endFill=0;" edge="1" parent="1" source="RGW5aQLPj-XnxgQfSlTx-1" target="PJ-6n8jXcff-FLxiBfN3-143">
          <mxGeometry relative="1" as="geometry">
            <Array as="points">
              <mxPoint x="369" y="297" />
              <mxPoint x="369" y="297" />
            </Array>
          </mxGeometry>
        </mxCell>
        <mxCell id="RGW5aQLPj-XnxgQfSlTx-1" value="Capitanes" style="shape=table;startSize=30;container=1;collapsible=1;childLayout=tableLayout;fixedRows=1;rowLines=0;fontStyle=1;align=center;resizeLast=1;" vertex="1" parent="1">
          <mxGeometry x="426" y="252" width="223" height="160" as="geometry" />
        </mxCell>
        <mxCell id="RGW5aQLPj-XnxgQfSlTx-2" value="" style="shape=partialRectangle;collapsible=0;dropTarget=0;pointerEvents=0;fillColor=none;top=0;left=0;bottom=1;right=0;points=[[0,0.5],[1,0.5]];portConstraint=eastwest;" vertex="1" parent="RGW5aQLPj-XnxgQfSlTx-1">
          <mxGeometry y="30" width="223" height="30" as="geometry" />
        </mxCell>
        <mxCell id="RGW5aQLPj-XnxgQfSlTx-3" value="PK" style="shape=partialRectangle;connectable=0;fillColor=none;top=0;left=0;bottom=0;right=0;fontStyle=1;overflow=hidden;" vertex="1" parent="RGW5aQLPj-XnxgQfSlTx-2">
          <mxGeometry width="30" height="30" as="geometry" />
        </mxCell>
        <mxCell id="RGW5aQLPj-XnxgQfSlTx-4" value="Matrícula del Capitán" style="shape=partialRectangle;connectable=0;fillColor=none;top=0;left=0;bottom=0;right=0;align=left;spacingLeft=6;fontStyle=5;overflow=hidden;" vertex="1" parent="RGW5aQLPj-XnxgQfSlTx-2">
          <mxGeometry x="30" width="193" height="30" as="geometry" />
        </mxCell>
        <mxCell id="RGW5aQLPj-XnxgQfSlTx-5" value="" style="shape=partialRectangle;collapsible=0;dropTarget=0;pointerEvents=0;fillColor=none;top=0;left=0;bottom=0;right=0;points=[[0,0.5],[1,0.5]];portConstraint=eastwest;" vertex="1" parent="RGW5aQLPj-XnxgQfSlTx-1">
          <mxGeometry y="60" width="223" height="30" as="geometry" />
        </mxCell>
        <mxCell id="RGW5aQLPj-XnxgQfSlTx-6" value="" style="shape=partialRectangle;connectable=0;fillColor=none;top=0;left=0;bottom=0;right=0;editable=1;overflow=hidden;" vertex="1" parent="RGW5aQLPj-XnxgQfSlTx-5">
          <mxGeometry width="30" height="30" as="geometry" />
        </mxCell>
        <mxCell id="RGW5aQLPj-XnxgQfSlTx-7" value="Nº Doc. de Identidad del Capitán" style="shape=partialRectangle;connectable=0;fillColor=none;top=0;left=0;bottom=0;right=0;align=left;spacingLeft=6;overflow=hidden;" vertex="1" parent="RGW5aQLPj-XnxgQfSlTx-5">
          <mxGeometry x="30" width="193" height="30" as="geometry" />
        </mxCell>
        <mxCell id="RGW5aQLPj-XnxgQfSlTx-8" value="" style="shape=partialRectangle;collapsible=0;dropTarget=0;pointerEvents=0;fillColor=none;top=0;left=0;bottom=0;right=0;points=[[0,0.5],[1,0.5]];portConstraint=eastwest;" vertex="1" parent="RGW5aQLPj-XnxgQfSlTx-1">
          <mxGeometry y="90" width="223" height="30" as="geometry" />
        </mxCell>
        <mxCell id="RGW5aQLPj-XnxgQfSlTx-9" value="" style="shape=partialRectangle;connectable=0;fillColor=none;top=0;left=0;bottom=0;right=0;editable=1;overflow=hidden;" vertex="1" parent="RGW5aQLPj-XnxgQfSlTx-8">
          <mxGeometry width="30" height="30" as="geometry" />
        </mxCell>
        <mxCell id="RGW5aQLPj-XnxgQfSlTx-10" value="Nombre del Capitán" style="shape=partialRectangle;connectable=0;fillColor=none;top=0;left=0;bottom=0;right=0;align=left;spacingLeft=6;overflow=hidden;" vertex="1" parent="RGW5aQLPj-XnxgQfSlTx-8">
          <mxGeometry x="30" width="193" height="30" as="geometry" />
        </mxCell>
        <mxCell id="RGW5aQLPj-XnxgQfSlTx-12" style="shape=partialRectangle;collapsible=0;dropTarget=0;pointerEvents=0;fillColor=none;top=0;left=0;bottom=0;right=0;points=[[0,0.5],[1,0.5]];portConstraint=eastwest;" vertex="1" parent="RGW5aQLPj-XnxgQfSlTx-1">
          <mxGeometry y="120" width="223" height="30" as="geometry" />
        </mxCell>
        <mxCell id="RGW5aQLPj-XnxgQfSlTx-13" style="shape=partialRectangle;connectable=0;fillColor=none;top=0;left=0;bottom=0;right=0;editable=1;overflow=hidden;" vertex="1" parent="RGW5aQLPj-XnxgQfSlTx-12">
          <mxGeometry width="30" height="30" as="geometry" />
        </mxCell>
        <mxCell id="RGW5aQLPj-XnxgQfSlTx-14" value="Domicilio de residencia del Capitán" style="shape=partialRectangle;connectable=0;fillColor=none;top=0;left=0;bottom=0;right=0;align=left;spacingLeft=6;overflow=hidden;" vertex="1" parent="RGW5aQLPj-XnxgQfSlTx-12">
          <mxGeometry x="30" width="193" height="30" as="geometry" />
        </mxCell>
        <mxCell id="RGW5aQLPj-XnxgQfSlTx-40" style="edgeStyle=orthogonalEdgeStyle;rounded=0;orthogonalLoop=1;jettySize=auto;html=1;endArrow=ERoneToMany;endFill=0;" edge="1" parent="1" source="RGW5aQLPj-XnxgQfSlTx-26" target="PJ-6n8jXcff-FLxiBfN3-220">
          <mxGeometry relative="1" as="geometry" />
        </mxCell>
        <mxCell id="RGW5aQLPj-XnxgQfSlTx-26" value="TripulanteXEmpresa" style="shape=table;startSize=30;container=1;collapsible=1;childLayout=tableLayout;fixedRows=1;rowLines=0;fontStyle=1;align=center;resizeLast=1;" vertex="1" parent="1">
          <mxGeometry x="405" y="-108" width="263" height="130" as="geometry" />
        </mxCell>
        <mxCell id="RGW5aQLPj-XnxgQfSlTx-27" value="" style="shape=partialRectangle;collapsible=0;dropTarget=0;pointerEvents=0;fillColor=none;top=0;left=0;bottom=0;right=0;points=[[0,0.5],[1,0.5]];portConstraint=eastwest;" vertex="1" parent="RGW5aQLPj-XnxgQfSlTx-26">
          <mxGeometry y="30" width="263" height="30" as="geometry" />
        </mxCell>
        <mxCell id="RGW5aQLPj-XnxgQfSlTx-28" value="PK,FK" style="shape=partialRectangle;connectable=0;fillColor=none;top=0;left=0;bottom=0;right=0;fontStyle=1;overflow=hidden;" vertex="1" parent="RGW5aQLPj-XnxgQfSlTx-27">
          <mxGeometry width="60" height="30" as="geometry" />
        </mxCell>
        <mxCell id="RGW5aQLPj-XnxgQfSlTx-29" value="Cod. Empresa naviera" style="shape=partialRectangle;connectable=0;fillColor=none;top=0;left=0;bottom=0;right=0;align=left;spacingLeft=6;fontStyle=5;overflow=hidden;" vertex="1" parent="RGW5aQLPj-XnxgQfSlTx-27">
          <mxGeometry x="60" width="203" height="30" as="geometry" />
        </mxCell>
        <mxCell id="RGW5aQLPj-XnxgQfSlTx-30" value="" style="shape=partialRectangle;collapsible=0;dropTarget=0;pointerEvents=0;fillColor=none;top=0;left=0;bottom=1;right=0;points=[[0,0.5],[1,0.5]];portConstraint=eastwest;" vertex="1" parent="RGW5aQLPj-XnxgQfSlTx-26">
          <mxGeometry y="60" width="263" height="30" as="geometry" />
        </mxCell>
        <mxCell id="RGW5aQLPj-XnxgQfSlTx-31" value="PK" style="shape=partialRectangle;connectable=0;fillColor=none;top=0;left=0;bottom=0;right=0;fontStyle=1;overflow=hidden;" vertex="1" parent="RGW5aQLPj-XnxgQfSlTx-30">
          <mxGeometry width="60" height="30" as="geometry" />
        </mxCell>
        <mxCell id="RGW5aQLPj-XnxgQfSlTx-32" value="Nº de legajo de tripulante" style="shape=partialRectangle;connectable=0;fillColor=none;top=0;left=0;bottom=0;right=0;align=left;spacingLeft=6;fontStyle=5;overflow=hidden;" vertex="1" parent="RGW5aQLPj-XnxgQfSlTx-30">
          <mxGeometry x="60" width="203" height="30" as="geometry" />
        </mxCell>
        <mxCell id="RGW5aQLPj-XnxgQfSlTx-33" value="" style="shape=partialRectangle;collapsible=0;dropTarget=0;pointerEvents=0;fillColor=none;top=0;left=0;bottom=0;right=0;points=[[0,0.5],[1,0.5]];portConstraint=eastwest;" vertex="1" parent="RGW5aQLPj-XnxgQfSlTx-26">
          <mxGeometry y="90" width="263" height="30" as="geometry" />
        </mxCell>
        <mxCell id="RGW5aQLPj-XnxgQfSlTx-34" value="FK" style="shape=partialRectangle;connectable=0;fillColor=none;top=0;left=0;bottom=0;right=0;editable=1;overflow=hidden;" vertex="1" parent="RGW5aQLPj-XnxgQfSlTx-33">
          <mxGeometry width="60" height="30" as="geometry" />
        </mxCell>
        <mxCell id="RGW5aQLPj-XnxgQfSlTx-35" value="Nº Doc. de Identidad del tripulante" style="shape=partialRectangle;connectable=0;fillColor=none;top=0;left=0;bottom=0;right=0;align=left;spacingLeft=6;overflow=hidden;" vertex="1" parent="RGW5aQLPj-XnxgQfSlTx-33">
          <mxGeometry x="60" width="203" height="30" as="geometry" />
        </mxCell>
      </root>
    </mxGraphModel>
  </diagram>
</mxfile>
